<svg viewBox="0 0 18 29" fill="none" xmlns="http://www.w3.org/2000/svg"><g clip-path="url(#prefix__clip0)"><path fill-rule="evenodd" clip-rule="evenodd" d="M.885 21.974c0 1.363.703 2.63 1.859 3.353l2.731 1.707a.79.79 0 10.838-1.341l-2.73-1.707a2.373 2.373 0 01-1.116-2.012V3.427a.79.79 0 00-1.582 0v18.547zM9.322 29a.79.79 0 01-.791-.79v-17.4a.79.79 0 011.581 0v17.4a.79.79 0 01-.79.79zm6.577-27.173a3.954 3.954 0 011.859 3.354v18.546a.79.79 0 01-1.582 0V5.181c0-.818-.421-1.579-1.115-2.012l-2.732-1.707A.79.79 0 1113.168.12l2.731 1.707z" fill="currentColor"/></g><defs><clipPath id="prefix__clip0"><path fill="#fff" transform="rotate(-90 14.5 14.5)" d="M0 0h29v18H0z"/></clipPath></defs></svg>